<?xml version="1.0" encoding="UTF-8" standalone="no"?>
<!-- Created with Inkscape (http://www.inkscape.org/) -->

<svg
   width="210mm"
   height="297mm"
   viewBox="0 0 210 297"
   version="1.1"
   id="svg5"
   inkscape:version="1.1 (c68e22c387, 2021-05-23)"
   sodipodi:docname="bandcamp-logo.svg"
   xmlns:inkscape="http://www.inkscape.org/namespaces/inkscape"
   xmlns:sodipodi="http://sodipodi.sourceforge.net/DTD/sodipodi-0.dtd"
   xmlns="http://www.w3.org/2000/svg"
   xmlns:svg="http://www.w3.org/2000/svg">
  <sodipodi:namedview
     id="namedview7"
     pagecolor="#ffffff"
     bordercolor="#666666"
     borderopacity="1.0"
     inkscape:pageshadow="2"
     inkscape:pageopacity="0.0"
     inkscape:pagecheckerboard="0"
     inkscape:document-units="mm"
     showgrid="false"
     inkscape:zoom="0.73638604"
     inkscape:cx="239.68407"
     inkscape:cy="728.55808"
     inkscape:window-width="2560"
     inkscape:window-height="1377"
     inkscape:window-x="-8"
     inkscape:window-y="-8"
     inkscape:window-maximized="1"
     inkscape:current-layer="layer1" />
  <defs
     id="defs2">
	
	
	
</defs>
  <g
     inkscape:label="Layer 1"
     inkscape:groupmode="layer"
     id="layer1">
    <path
       style="fill:#000000;stroke-width:0.264583"
       id="path207"
       d="" />
    <path
       style="fill:#000000;stroke-width:0.264583"
       id="path169"
       d="" />
    <g
       id="g1132"
       style="fill:#ffffff">
      <g
         id="g1017"
         transform="matrix(0.26458333,0,0,0.26458333,42.418603,35.232608)"
         style="fill:#ffffff">
        <polygon
           points="251.965,99.074 70.561,99.074 0,251.739 181.402,251.739 "
           id="polygon943"
           transform="translate(-4.0739502,243.07903)"
           style="fill:#ffffff" />
        <g
           id="g949"
           transform="translate(-4.0739502,243.07903)"
           style="fill:#ffffff">
		<path
   d="m 301.692,136.215 c -12.59,0.208 -23.315,5.368 -31.155,16.712 H 270.12 V 99.072 H 251.963 V 247.22 h 17.131 v -13.412 h 0.41 c 3.714,5.982 11.349,16.503 29.709,16.503 36.729,0 47.457,-34.453 47.457,-60.241 -0.002,-30.328 -16.298,-53.855 -44.978,-53.855 z m -2.892,98.42 c -11.549,0 -29.501,-7.639 -29.501,-36.313 0,-17.539 2.883,-45.805 29.09,-45.805 28.06,0 29.504,26.619 29.504,40.442 0,23.718 -9.285,41.676 -29.093,41.676 z"
   id="path945"
   style="fill:#ffffff" />

		<path
   d="m 407.408,152.517 c 15.268,0 23.324,8.664 25.589,23.106 h 17.534 c -1.443,-18.771 -12.171,-39.41 -40.44,-39.41 -35.692,0 -51.78,26.619 -51.78,60.04 0,31.16 17.949,54.058 48.276,54.058 31.567,0 42.095,-24.138 43.944,-41.262 h -17.534 c -3.098,16.503 -13.615,25.586 -25.785,25.586 -24.964,0 -29.508,-22.905 -29.508,-41.473 0.002,-19.192 7.224,-40.645 29.704,-40.645 z"
   id="path947"
   style="fill:#ffffff" />

	</g>
        <g
           id="g953"
           style="fill:#ffffff">
</g>
        <g
           id="g955"
           style="fill:#ffffff">
</g>
        <g
           id="g957"
           style="fill:#ffffff">
</g>
        <g
           id="g959"
           style="fill:#ffffff">
</g>
        <g
           id="g961"
           style="fill:#ffffff">
</g>
        <g
           id="g963"
           style="fill:#ffffff">
</g>
        <g
           id="g965"
           style="fill:#ffffff">
</g>
        <g
           id="g967"
           style="fill:#ffffff">
</g>
        <g
           id="g969"
           style="fill:#ffffff">
</g>
        <g
           id="g971"
           style="fill:#ffffff">
</g>
        <g
           id="g973"
           style="fill:#ffffff">
</g>
        <g
           id="g975"
           style="fill:#ffffff">
</g>
        <g
           id="g977"
           style="fill:#ffffff">
</g>
        <g
           id="g979"
           style="fill:#ffffff">
</g>
        <g
           id="g981"
           style="fill:#ffffff">
</g>
      </g>
    </g>
  </g>
</svg>
